<svg id="Layer_1" data-name="Layer 1" xmlns="http://www.w3.org/2000/svg" viewBox="0 0 429.17 78.66"><defs><style>.cls-1{fill:#332e54;}</style></defs><path class="cls-1" d="M267.43,173.46h-10V130.67h10Zm10.14-33.77a7.39,7.39,0,0,0-3.07-.56,6.24,6.24,0,0,0-4.1,1.31,7.26,7.26,0,0,0-2.28,3.58,18.53,18.53,0,0,0-.69,5.35l-3.35-2a20.53,20.53,0,0,1,1.91-9.07,17,17,0,0,1,4.93-6.28,10.14,10.14,0,0,1,6.27-2.32,13.4,13.4,0,0,1,4.38.7A7.29,7.29,0,0,1,285,132.9l-4.84,8.47A12.82,12.82,0,0,0,277.57,139.69Z" transform="translate(-34.81 -115.78)"/><path class="cls-1" d="M293.52,140.44a21.3,21.3,0,0,1,8.23-7.86,24.2,24.2,0,0,1,11.82-2.84,23.91,23.91,0,0,1,11.76,2.84,22.27,22.27,0,0,1,0,39,24,24,0,0,1-11.76,2.84,24.31,24.31,0,0,1-11.82-2.84,21.19,21.19,0,0,1-8.23-7.9,23.81,23.81,0,0,1,0-23.21Zm9,18.65a12.67,12.67,0,0,0,22.14,0,14.36,14.36,0,0,0,1.67-7,14.62,14.62,0,0,0-1.67-7.07,12,12,0,0,0-4.61-4.74,13.45,13.45,0,0,0-13,0A12,12,0,0,0,302.5,145a14.52,14.52,0,0,0-1.68,7.07A14.25,14.25,0,0,0,302.5,159.09Z" transform="translate(-34.81 -115.78)"/><path class="cls-1" d="M349.15,140.44a21.23,21.23,0,0,1,8.23-7.86,25.89,25.89,0,0,1,23.58,0,22.28,22.28,0,0,1,0,39,25.89,25.89,0,0,1-23.58,0,21.12,21.12,0,0,1-8.23-7.9,23.74,23.74,0,0,1,0-23.21Zm9,18.65a12.81,12.81,0,0,0,17.54,4.74,12.33,12.33,0,0,0,4.6-4.74,14.25,14.25,0,0,0,1.68-7,14.52,14.52,0,0,0-1.68-7.07,11.93,11.93,0,0,0-4.6-4.74,13.45,13.45,0,0,0-13,0,12.1,12.1,0,0,0-4.56,4.74,14.62,14.62,0,0,0-1.67,7.07A14.36,14.36,0,0,0,358.12,159.09Z" transform="translate(-34.81 -115.78)"/><path class="cls-1" d="M423.33,130.67v8.83H399.05v-8.83Zm-7.16-14.89v57.68h-10V115.78Z" transform="translate(-34.81 -115.78)"/><path class="cls-1" d="M439.56,163.27a15.65,15.65,0,0,0,4.24,2.42,12.17,12.17,0,0,0,4.28.79,6.67,6.67,0,0,0,4.23-1.21,4,4,0,0,0,1.53-3.35,4.63,4.63,0,0,0-1.21-3.21,10,10,0,0,0-3.35-2.32c-1.42-.65-3.1-1.32-5-2a49.72,49.72,0,0,1-5.72-2.65,13.7,13.7,0,0,1-4.65-4.05,10.5,10.5,0,0,1-1.81-6.32,10.36,10.36,0,0,1,2-6.52,11.81,11.81,0,0,1,5.39-3.86,22.06,22.06,0,0,1,13.95-.23,22.74,22.74,0,0,1,5.63,2.7,19.76,19.76,0,0,1,4.28,3.81l-5.58,6a17.35,17.35,0,0,0-5.12-4.1,13,13,0,0,0-6.14-1.58,6.24,6.24,0,0,0-3.53.93,3,3,0,0,0-1.4,2.7,3.52,3.52,0,0,0,1.26,2.65,12,12,0,0,0,3.35,2.09c1.39.62,3,1.28,4.7,2a53.09,53.09,0,0,1,6.51,3.07,15.17,15.17,0,0,1,4.79,4.09,10.27,10.27,0,0,1,1.81,6.33,12.36,12.36,0,0,1-4.14,9.72q-4.14,3.67-11.21,3.67a23.12,23.12,0,0,1-14.46-4.88,26.78,26.78,0,0,1-4.61-4.61l5.86-5.86A34.08,34.08,0,0,0,439.56,163.27Z" transform="translate(-34.81 -115.78)"/><path d="M37.6,139.7A19.87,19.87,0,0,1,45.09,132a20.44,20.44,0,0,1,10.37-2.7A15.77,15.77,0,0,1,65,132.26a19.71,19.71,0,0,1,6.28,8,29.74,29.74,0,0,1,0,22.84,19.61,19.61,0,0,1-6.28,8A15.77,15.77,0,0,1,55.46,174a20.44,20.44,0,0,1-10.37-2.7,19.67,19.67,0,0,1-7.49-7.72,26.9,26.9,0,0,1,0-23.86Zm3.16,36.14A13.82,13.82,0,0,0,42.62,183a13.49,13.49,0,0,0,5.26,5,16.08,16.08,0,0,0,7.86,1.86A15.9,15.9,0,0,0,63.27,188a14.54,14.54,0,0,0,5.82-5.82,20,20,0,0,0,2.28-10.09V130.26h4.84v41.86a24.29,24.29,0,0,1-2.89,12.33,19.28,19.28,0,0,1-7.53,7.49,20.89,20.89,0,0,1-10.05,2.51,22.32,22.32,0,0,1-10.37-2.33,17.13,17.13,0,0,1-7-6.56,18.71,18.71,0,0,1-2.51-9.72Zm1.17-14.6a14.93,14.93,0,0,0,6,6.09,16.62,16.62,0,0,0,8.23,2.09,13.26,13.26,0,0,0,7.49-2.32,17.11,17.11,0,0,0,5.63-6.37,19.61,19.61,0,0,0,2.14-9.26,19.24,19.24,0,0,0-1.21-6.88,17.77,17.77,0,0,0-3.4-5.59,16.26,16.26,0,0,0-4.93-3.76,12.79,12.79,0,0,0-5.72-1.35A16.73,16.73,0,0,0,47.88,136a15,15,0,0,0-6,6.1,22,22,0,0,0,0,19.16Z" transform="translate(-34.81 -115.78)"/><path d="M98.53,173.05H93.69V130.26h4.84Zm11.58-38.65a7.75,7.75,0,0,0-2.93-.51,7.15,7.15,0,0,0-5.07,1.77,10,10,0,0,0-2.74,4.74,24.32,24.32,0,0,0-.84,6.6H96.3a24.1,24.1,0,0,1,1.58-9.06,15.59,15.59,0,0,1,4.33-6.28,9.19,9.19,0,0,1,6.09-2.33,12,12,0,0,1,3.86.61,8.72,8.72,0,0,1,3.3,2l-2.7,4A12.17,12.17,0,0,0,110.11,134.4Z" transform="translate(-34.81 -115.78)"/><path d="M129.09,165.52a8.9,8.9,0,0,0,3.91,3.21,14.16,14.16,0,0,0,12.09-.61,12.71,12.71,0,0,0,4.88-4.93,15.91,15.91,0,0,0,1.86-8l1.12,4.09a13.53,13.53,0,0,1-2.42,8.28,14.67,14.67,0,0,1-6.05,4.84,18.32,18.32,0,0,1-7.35,1.58,16.6,16.6,0,0,1-7-1.53,12.35,12.35,0,0,1-7.44-12,12.21,12.21,0,0,1,4.32-9.86q4.32-3.63,11.77-3.63a23.63,23.63,0,0,1,7.21,1,23,23,0,0,1,5,2.19,16,16,0,0,1,2.79,2v3.07a23,23,0,0,0-6.75-3.3,26.13,26.13,0,0,0-7.49-1.07,17.48,17.48,0,0,0-6.28,1,9.11,9.11,0,0,0-4.14,3.07,8.82,8.82,0,0,0-1.48,5.3A9.32,9.32,0,0,0,129.09,165.52Zm-3.68-31.07a39.68,39.68,0,0,1,6.28-3.4,23.38,23.38,0,0,1,9.54-1.72,19.82,19.82,0,0,1,8.28,1.58,12,12,0,0,1,5.3,4.56,13.44,13.44,0,0,1,1.86,7.26v30.32h-4.84V143.38a11.27,11.27,0,0,0-.56-3.58,8.49,8.49,0,0,0-1.81-3.12,8.69,8.69,0,0,0-3.4-2.23,14.24,14.24,0,0,0-5.2-.84,20.26,20.26,0,0,0-5.68.74,21.07,21.07,0,0,0-4.32,1.77,25.89,25.89,0,0,0-3,2Z" transform="translate(-34.81 -115.78)"/><path d="M175.65,165.14a11.74,11.74,0,0,0,4,3.17,13.14,13.14,0,0,0,5.82,1.21,9.46,9.46,0,0,0,6.28-2,6.87,6.87,0,0,0,2.37-5.54,6.37,6.37,0,0,0-1.49-4.32,11.93,11.93,0,0,0-3.91-2.89,45.24,45.24,0,0,0-5.21-2.09,59.28,59.28,0,0,1-5.76-2.51,13,13,0,0,1-4.61-3.77,9.9,9.9,0,0,1-1.81-6.19,9.78,9.78,0,0,1,1.81-6,10.74,10.74,0,0,1,4.74-3.58,17.8,17.8,0,0,1,12.8,0,16.07,16.07,0,0,1,4.93,3.17,14.47,14.47,0,0,1,3.16,4.37l-4,2.42a14.71,14.71,0,0,0-4.19-4.84,11.25,11.25,0,0,0-7-2.05,8.9,8.9,0,0,0-5.35,1.58,5.39,5.39,0,0,0-2.19,4.66,6.16,6.16,0,0,0,1.4,4.14,10.37,10.37,0,0,0,3.72,2.65q2.33,1,4.93,2a53.59,53.59,0,0,1,6.37,2.88,15,15,0,0,1,4.74,3.91,9.38,9.38,0,0,1,1.82,5.95,11.66,11.66,0,0,1-3.86,9.07,14.34,14.34,0,0,1-10,3.49,17.87,17.87,0,0,1-7.77-1.58,14.79,14.79,0,0,1-5.3-4.09,17.46,17.46,0,0,1-2.93-5.21l3.9-2.23A16.29,16.29,0,0,0,175.65,165.14Z" transform="translate(-34.81 -115.78)"/><path d="M216.39,165.14a11.68,11.68,0,0,0,4.05,3.17,13.13,13.13,0,0,0,5.81,1.21,9.44,9.44,0,0,0,6.28-2A6.87,6.87,0,0,0,234.9,162a6.37,6.37,0,0,0-1.49-4.32,11.89,11.89,0,0,0-3.9-2.89,46,46,0,0,0-5.21-2.09,58.42,58.42,0,0,1-5.77-2.51,13.09,13.09,0,0,1-4.61-3.77,10,10,0,0,1-1.81-6.19,9.84,9.84,0,0,1,1.81-6,10.72,10.72,0,0,1,4.75-3.58,17.78,17.78,0,0,1,12.79,0,16,16,0,0,1,4.93,3.17,14.3,14.3,0,0,1,3.16,4.37l-4,2.42a14.79,14.79,0,0,0-4.18-4.84,11.28,11.28,0,0,0-7-2.05,8.92,8.92,0,0,0-5.35,1.58,5.39,5.39,0,0,0-2.19,4.66,6.16,6.16,0,0,0,1.4,4.14,10.37,10.37,0,0,0,3.72,2.65q2.33,1,4.93,2a52.88,52.88,0,0,1,6.37,2.88,14.9,14.9,0,0,1,4.75,3.91,9.37,9.37,0,0,1,1.81,5.95,11.66,11.66,0,0,1-3.86,9.07A14.32,14.32,0,0,1,226,174a17.87,17.87,0,0,1-7.77-1.58,14.79,14.79,0,0,1-5.3-4.09A17.69,17.69,0,0,1,210,163.1l3.91-2.23A16.26,16.26,0,0,0,216.39,165.14Z" transform="translate(-34.81 -115.78)"/></svg>